<?xml version="1.0" encoding="utf-8"?>
<!-- Generator: Adobe Illustrator 21.1.0, SVG Export Plug-In . SVG Version: 6.00 Build 0)  -->
<svg version="1.1" id="Layer_1" xmlns="http://www.w3.org/2000/svg" xmlns:xlink="http://www.w3.org/1999/xlink" x="0px" y="0px"
	 viewBox="0 0 108.5 25.3" style="enable-background:new 0 0 108.5 25.3;" xml:space="preserve">
<g>
	<path d="M25.1,14.3v10.6h-5.4v-9.1c0-1.5-0.7-2.3-2-2.3c-0.6,0-1.1,0.1-1.5,0.4c-0.4,0.3-0.8,0.6-1,1v10H9.9v-9.2
		c0-1.5-0.6-2.3-1.9-2.3c-1.1,0-2,0.4-2.6,1.3v10.2H0V8.6h5.4v1.5C6.6,9,8.2,8.4,10.2,8.4c1.2,0,2.2,0.2,3,0.7
		c0.8,0.4,1.3,1,1.7,1.7c1.3-1.6,3-2.4,5.2-2.4C23.4,8.4,25.1,10.3,25.1,14.3z"/>
	<path d="M30.3,22.9c-1.6-1.6-2.5-3.6-2.5-6.1c0-2.5,0.8-4.5,2.5-6.1c1.6-1.6,3.8-2.4,6.5-2.4c2.7,0,4.9,0.8,6.5,2.4
		c1.6,1.6,2.5,3.6,2.5,6.1c0,2.5-0.8,4.5-2.5,6.1c-1.6,1.6-3.8,2.4-6.5,2.4C34.1,25.3,31.9,24.5,30.3,22.9z M33.6,16.7
		c0,1,0.3,1.8,0.9,2.5c0.6,0.7,1.4,1,2.3,1s1.7-0.3,2.3-0.9c0.6-0.6,0.9-1.5,0.9-2.6c0-1-0.3-1.9-0.9-2.5s-1.4-1-2.3-1
		c-0.9,0-1.7,0.3-2.3,1C33.9,14.8,33.6,15.7,33.6,16.7z"/>
	<path d="M48.5,18.7V4.1h5.4v4.5h4.5v5h-4.5v4.8c0,1.2,0.3,1.8,1,1.8c0.8,0,1.6-0.3,2.4-0.9l1.6,4.1c-1.4,1.2-3.2,1.8-5.4,1.8
		c-1.8,0-3.1-0.6-3.9-1.7C48.9,22.5,48.5,20.8,48.5,18.7z"/>
	<path d="M62.1,3.1c0-0.9,0.3-1.7,1-2.2C63.7,0.3,64.4,0,65.3,0c0.8,0,1.5,0.3,2.1,0.8c0.6,0.6,0.9,1.3,0.9,2.2c0,1-0.3,1.8-0.9,2.4
		c-0.6,0.6-1.3,0.9-2.1,0.9c-0.9,0-1.7-0.3-2.3-0.9C62.4,4.9,62.1,4.1,62.1,3.1z M62.5,24.8V8.6h5.4v16.2H62.5z"/>
	<path d="M73.9,22.9c-1.6-1.6-2.5-3.6-2.5-6.1c0-2.5,0.8-4.5,2.5-6.1c1.6-1.6,3.8-2.4,6.5-2.4c2.7,0,4.9,0.8,6.5,2.4
		c1.6,1.6,2.5,3.6,2.5,6.1c0,2.5-0.8,4.5-2.5,6.1c-1.6,1.6-3.8,2.4-6.5,2.4C77.7,25.3,75.6,24.5,73.9,22.9z M77.2,16.7
		c0,1,0.3,1.8,0.9,2.5c0.6,0.7,1.4,1,2.3,1s1.7-0.3,2.3-0.9c0.6-0.6,0.9-1.5,0.9-2.6c0-1-0.3-1.9-0.9-2.5s-1.4-1-2.3-1
		c-0.9,0-1.7,0.3-2.3,1C77.5,14.8,77.2,15.7,77.2,16.7z"/>
	<path d="M92.5,24.8V8.6h5.4v1.3c1.1-1,2.4-1.5,4-1.5c4.4,0,6.6,2.3,6.6,6.8v9.6h-5.4v-8.7c0-0.9-0.2-1.6-0.7-2.1
		c-0.5-0.5-1.1-0.7-1.9-0.7c-0.9,0-1.8,0.4-2.5,1.1v10.3H92.5z"/>
</g>
</svg>
